<mxfile host="65bd71144e">
    <diagram id="U49BUaQYW4t6mb_fWhLn" name="Page-1">
        <mxGraphModel dx="1374" dy="752" grid="1" gridSize="10" guides="1" tooltips="1" connect="1" arrows="1" fold="1" page="1" pageScale="1" pageWidth="2339" pageHeight="3300" background="#F1FAEE" math="0" shadow="0">
            <root>
                <mxCell id="0"/>
                <mxCell id="1" parent="0"/>
                <mxCell id="4" style="edgeStyle=orthogonalEdgeStyle;curved=0;rounded=1;sketch=0;orthogonalLoop=1;jettySize=auto;html=1;fontSize=15;fontColor=#1D3557;strokeColor=#457B9D;fillColor=#A8DADC;entryX=0.5;entryY=0;entryDx=0;entryDy=0;" parent="1" source="3" target="6" edge="1">
                    <mxGeometry relative="1" as="geometry">
                        <mxPoint x="725" y="290" as="targetPoint"/>
                    </mxGeometry>
                </mxCell>
                <mxCell id="3" value="INPUT&lt;br&gt;state&lt;br&gt;tlight-vert1 = tlightvert2&lt;br&gt;tlight-horz = tlight-horz2&lt;br&gt;time of day" style="rounded=1;whiteSpace=wrap;html=1;sketch=0;fontColor=#1D3557;strokeColor=#457B9D;fillColor=#A8DADC;fontSize=15;" parent="1" vertex="1">
                    <mxGeometry x="640" y="60" width="170" height="110" as="geometry"/>
                </mxCell>
                <mxCell id="8" style="edgeStyle=orthogonalEdgeStyle;curved=0;rounded=1;sketch=0;orthogonalLoop=1;jettySize=auto;html=1;fontSize=15;fontColor=#1D3557;strokeColor=#457B9D;fillColor=#A8DADC;" parent="1" source="6" edge="1">
                    <mxGeometry relative="1" as="geometry">
                        <mxPoint x="910" y="365" as="targetPoint"/>
                    </mxGeometry>
                </mxCell>
                <mxCell id="11" style="edgeStyle=orthogonalEdgeStyle;curved=0;rounded=1;sketch=0;orthogonalLoop=1;jettySize=auto;html=1;fontSize=15;fontColor=#1D3557;strokeColor=#457B9D;fillColor=#A8DADC;" parent="1" source="6" edge="1">
                    <mxGeometry relative="1" as="geometry">
                        <mxPoint x="725" y="490" as="targetPoint"/>
                    </mxGeometry>
                </mxCell>
                <mxCell id="6" value="if start time" style="rhombus;whiteSpace=wrap;html=1;rounded=0;sketch=0;fontSize=15;fontColor=#1D3557;strokeColor=#457B9D;fillColor=#A8DADC;" parent="1" vertex="1">
                    <mxGeometry x="670" y="310" width="110" height="110" as="geometry"/>
                </mxCell>
                <mxCell id="13" style="edgeStyle=orthogonalEdgeStyle;curved=0;rounded=1;sketch=0;orthogonalLoop=1;jettySize=auto;html=1;fontSize=15;fontColor=#1D3557;strokeColor=#457B9D;fillColor=#A8DADC;" parent="1" source="7" edge="1">
                    <mxGeometry relative="1" as="geometry">
                        <mxPoint x="725" y="620" as="targetPoint"/>
                        <Array as="points">
                            <mxPoint x="725" y="520"/>
                            <mxPoint x="725" y="520"/>
                        </Array>
                    </mxGeometry>
                </mxCell>
                <mxCell id="7" value="tlight-vert = green&lt;br&gt;tlight-horz = red" style="whiteSpace=wrap;html=1;rounded=0;sketch=0;fontSize=15;fontColor=#1D3557;strokeColor=#457B9D;fillColor=#A8DADC;" parent="1" vertex="1">
                    <mxGeometry x="650" y="570" width="150" height="70" as="geometry"/>
                </mxCell>
                <mxCell id="35" style="edgeStyle=orthogonalEdgeStyle;curved=0;rounded=1;sketch=0;orthogonalLoop=1;jettySize=auto;html=1;entryX=1.012;entryY=0.682;entryDx=0;entryDy=0;entryPerimeter=0;fontSize=15;fontColor=#1D3557;strokeColor=#457B9D;fillColor=#A8DADC;" parent="1" source="9" target="3" edge="1">
                    <mxGeometry relative="1" as="geometry">
                        <Array as="points">
                            <mxPoint x="970" y="135"/>
                        </Array>
                    </mxGeometry>
                </mxCell>
                <mxCell id="9" value="all lights&lt;br&gt;keep blinking" style="whiteSpace=wrap;html=1;rounded=0;sketch=0;fontSize=15;fontColor=#1D3557;strokeColor=#457B9D;fillColor=#A8DADC;" parent="1" vertex="1">
                    <mxGeometry x="920" y="335" width="120" height="60" as="geometry"/>
                </mxCell>
                <mxCell id="10" value="no&lt;br&gt;" style="text;html=1;align=center;verticalAlign=middle;resizable=0;points=[];autosize=1;strokeColor=none;fontSize=15;fontColor=#1D3557;" parent="1" vertex="1">
                    <mxGeometry x="830" y="335" width="30" height="20" as="geometry"/>
                </mxCell>
                <mxCell id="12" value="4am - 11pm" style="text;html=1;align=center;verticalAlign=middle;resizable=0;points=[];autosize=1;strokeColor=none;fontSize=15;fontColor=#1D3557;" parent="1" vertex="1">
                    <mxGeometry x="730" y="440" width="90" height="20" as="geometry"/>
                </mxCell>
                <mxCell id="34" style="edgeStyle=orthogonalEdgeStyle;curved=0;rounded=1;sketch=0;orthogonalLoop=1;jettySize=auto;html=1;fontSize=15;fontColor=#1D3557;strokeColor=#457B9D;fillColor=#A8DADC;entryX=-0.012;entryY=0.573;entryDx=0;entryDy=0;entryPerimeter=0;" parent="1" source="14" target="3" edge="1">
                    <mxGeometry relative="1" as="geometry">
                        <mxPoint x="620" y="120" as="targetPoint"/>
                        <Array as="points">
                            <mxPoint x="490" y="515"/>
                            <mxPoint x="490" y="123"/>
                        </Array>
                    </mxGeometry>
                </mxCell>
                <mxCell id="14" value="delay timer" style="shape=hexagon;perimeter=hexagonPerimeter2;whiteSpace=wrap;html=1;fixedSize=1;rounded=0;sketch=0;fontSize=15;strokeColor=#0e8088;fillColor=#b0e3e6;" parent="1" vertex="1">
                    <mxGeometry x="531" y="500" width="390" height="30" as="geometry"/>
                </mxCell>
                <mxCell id="26" style="edgeStyle=orthogonalEdgeStyle;curved=0;rounded=1;sketch=0;orthogonalLoop=1;jettySize=auto;html=1;fontSize=15;fontColor=#1D3557;strokeColor=#457B9D;fillColor=#A8DADC;" parent="1" source="16" target="23" edge="1">
                    <mxGeometry relative="1" as="geometry">
                        <Array as="points">
                            <mxPoint x="725" y="790"/>
                            <mxPoint x="725" y="790"/>
                        </Array>
                    </mxGeometry>
                </mxCell>
                <mxCell id="16" value="tlight-vert = yellow&lt;br&gt;tlight-horz= red" style="whiteSpace=wrap;html=1;rounded=0;sketch=0;fontSize=15;fontColor=#1D3557;strokeColor=#457B9D;fillColor=#A8DADC;" parent="1" vertex="1">
                    <mxGeometry x="650" y="680" width="150" height="50" as="geometry"/>
                </mxCell>
                <mxCell id="21" value="" style="endArrow=none;html=1;fontSize=15;fontColor=#1D3557;strokeColor=#457B9D;fillColor=#A8DADC;" parent="1" target="7" edge="1">
                    <mxGeometry width="50" height="50" relative="1" as="geometry">
                        <mxPoint x="724" y="690" as="sourcePoint"/>
                        <mxPoint x="770" y="640" as="targetPoint"/>
                    </mxGeometry>
                </mxCell>
                <mxCell id="27" style="edgeStyle=orthogonalEdgeStyle;curved=0;rounded=1;sketch=0;orthogonalLoop=1;jettySize=auto;html=1;fontSize=15;fontColor=#1D3557;strokeColor=#457B9D;fillColor=#A8DADC;" parent="1" source="23" target="24" edge="1">
                    <mxGeometry relative="1" as="geometry"/>
                </mxCell>
                <mxCell id="23" value="tlight-vert = red&lt;br&gt;tlight-horz=red" style="whiteSpace=wrap;html=1;rounded=0;sketch=0;fontSize=15;fontColor=#1D3557;strokeColor=#457B9D;fillColor=#A8DADC;" parent="1" vertex="1">
                    <mxGeometry x="650" y="770" width="150" height="60" as="geometry"/>
                </mxCell>
                <mxCell id="29" style="edgeStyle=orthogonalEdgeStyle;curved=0;rounded=1;sketch=0;orthogonalLoop=1;jettySize=auto;html=1;fontSize=15;fontColor=#1D3557;strokeColor=#457B9D;fillColor=#A8DADC;" parent="1" source="24" target="25" edge="1">
                    <mxGeometry relative="1" as="geometry"/>
                </mxCell>
                <mxCell id="24" value="tlight-vert = red&lt;br&gt;tlight-horz=yellow" style="whiteSpace=wrap;html=1;rounded=0;sketch=0;fontSize=15;fontColor=#1D3557;strokeColor=#457B9D;fillColor=#A8DADC;" parent="1" vertex="1">
                    <mxGeometry x="850" y="770" width="120" height="60" as="geometry"/>
                </mxCell>
                <mxCell id="30" style="edgeStyle=orthogonalEdgeStyle;curved=0;rounded=1;sketch=0;orthogonalLoop=1;jettySize=auto;html=1;fontSize=15;fontColor=#1D3557;strokeColor=#457B9D;fillColor=#A8DADC;entryX=1;entryY=0.5;entryDx=0;entryDy=0;" parent="1" source="25" target="14" edge="1">
                    <mxGeometry relative="1" as="geometry">
                        <mxPoint x="910" y="640" as="targetPoint"/>
                        <Array as="points">
                            <mxPoint x="910" y="540"/>
                            <mxPoint x="921" y="540"/>
                        </Array>
                    </mxGeometry>
                </mxCell>
                <mxCell id="25" value="tlight-vert=red&lt;br&gt;tlight-horz = green&lt;br&gt;" style="whiteSpace=wrap;html=1;rounded=0;sketch=0;fontSize=15;fontColor=#1D3557;strokeColor=#457B9D;fillColor=#A8DADC;" parent="1" vertex="1">
                    <mxGeometry x="850" y="670" width="120" height="60" as="geometry"/>
                </mxCell>
                <mxCell id="36" value="INPUT&lt;br&gt;state&lt;br&gt;time of day" style="rounded=1;whiteSpace=wrap;html=1;sketch=0;fontSize=15;strokeColor=#b85450;fillColor=#f8cecc;" parent="1" vertex="1">
                    <mxGeometry x="1280" y="60" width="160" height="90" as="geometry"/>
                </mxCell>
                <mxCell id="37" value="delay timer (day/time, # of cars, speed limit)" style="shape=hexagon;perimeter=hexagonPerimeter2;whiteSpace=wrap;html=1;fixedSize=1;rounded=0;sketch=0;fontSize=15;strokeColor=#b85450;fillColor=#f8cecc;" parent="1" vertex="1">
                    <mxGeometry x="1180" y="500" width="390" height="30" as="geometry"/>
                </mxCell>
                <mxCell id="39" value="&quot;...&quot;" style="text;html=1;align=center;verticalAlign=middle;whiteSpace=wrap;rounded=0;sketch=0;fontSize=25;" vertex="1" parent="1">
                    <mxGeometry x="1249" y="200" width="220" height="80" as="geometry"/>
                </mxCell>
                <mxCell id="62" style="edgeStyle=elbowEdgeStyle;rounded=1;sketch=0;orthogonalLoop=1;jettySize=auto;html=1;exitX=0.75;exitY=1;exitDx=0;exitDy=0;shadow=1;fontSize=25;fontColor=#1D3557;strokeColor=#457B9D;fillColor=#A8DADC;" parent="1" source="42" edge="1">
                    <mxGeometry relative="1" as="geometry">
                        <mxPoint x="1485" y="690" as="targetPoint"/>
                        <Array as="points">
                            <mxPoint x="1485" y="640"/>
                            <mxPoint x="1480" y="650"/>
                        </Array>
                    </mxGeometry>
                </mxCell>
                <mxCell id="63" style="edgeStyle=elbowEdgeStyle;rounded=1;sketch=0;orthogonalLoop=1;jettySize=auto;html=1;exitX=0.25;exitY=1;exitDx=0;exitDy=0;shadow=1;fontSize=25;fontColor=#1D3557;strokeColor=#457B9D;fillColor=#A8DADC;" parent="1" source="42" edge="1">
                    <mxGeometry relative="1" as="geometry">
                        <mxPoint x="1235" y="690" as="targetPoint"/>
                        <Array as="points">
                            <mxPoint x="1235" y="640"/>
                            <mxPoint x="1240" y="670"/>
                        </Array>
                    </mxGeometry>
                </mxCell>
                <mxCell id="65" style="edgeStyle=elbowEdgeStyle;rounded=1;sketch=0;orthogonalLoop=1;jettySize=auto;html=1;exitX=0.5;exitY=1;exitDx=0;exitDy=0;shadow=1;fontSize=25;fontColor=#1D3557;strokeColor=#457B9D;fillColor=#A8DADC;" parent="1" source="42" target="50" edge="1">
                    <mxGeometry relative="1" as="geometry"/>
                </mxCell>
                <mxCell id="42" value="S = N&lt;br&gt;E = W" style="rounded=0;whiteSpace=wrap;html=1;sketch=0;fontSize=15;strokeColor=#ae4132;fillColor=#fad9d5;" parent="1" vertex="1">
                    <mxGeometry x="1284" y="570" width="150" height="60" as="geometry"/>
                </mxCell>
                <mxCell id="46" value="" style="endArrow=none;html=1;fontSize=25;fontColor=#1D3557;strokeColor=#457B9D;fillColor=#A8DADC;" parent="1" edge="1">
                    <mxGeometry width="50" height="50" relative="1" as="geometry">
                        <mxPoint x="1360" y="230" as="sourcePoint"/>
                        <mxPoint x="1360" y="150" as="targetPoint"/>
                    </mxGeometry>
                </mxCell>
                <mxCell id="49" value="&lt;font style=&quot;font-size: 18px&quot;&gt;SN1&lt;br&gt;WE1&lt;br&gt;&lt;/font&gt;" style="whiteSpace=wrap;html=1;aspect=fixed;rounded=0;sketch=0;fontSize=25;strokeColor=#ae4132;fillColor=#fad9d5;" parent="1" vertex="1">
                    <mxGeometry x="1160" y="695" width="120" height="120" as="geometry"/>
                </mxCell>
                <mxCell id="50" value="&lt;font style=&quot;font-size: 12px&quot;&gt;SN2 = SN1+delay var&lt;br&gt;WE2 = WE1+delay variable&lt;br&gt;&lt;br&gt;&lt;/font&gt;" style="whiteSpace=wrap;html=1;aspect=fixed;rounded=0;sketch=0;fontSize=25;strokeColor=#ae4132;fillColor=#fad9d5;" parent="1" vertex="1">
                    <mxGeometry x="1300" y="695" width="120" height="120" as="geometry"/>
                </mxCell>
                <mxCell id="51" value="&lt;font style=&quot;font-size: 12px&quot;&gt;SN3=&lt;br&gt;SN2+delay variable&lt;br&gt;WE3 = WE2 + delay variable&lt;br&gt;&lt;/font&gt;" style="whiteSpace=wrap;html=1;aspect=fixed;rounded=0;sketch=0;fontSize=25;strokeColor=#ae4132;fillColor=#fad9d5;" parent="1" vertex="1">
                    <mxGeometry x="1435" y="695" width="120" height="120" as="geometry"/>
                </mxCell>
                <mxCell id="66" value="" style="endArrow=none;html=1;shadow=1;fontSize=25;fontColor=#1D3557;strokeColor=#457B9D;fillColor=#A8DADC;" parent="1" edge="1">
                    <mxGeometry width="50" height="50" relative="1" as="geometry">
                        <mxPoint x="1360" y="560" as="sourcePoint"/>
                        <mxPoint x="1360" y="530" as="targetPoint"/>
                    </mxGeometry>
                </mxCell>
                <mxCell id="68" value="" style="endArrow=none;html=1;shadow=1;fontSize=25;fontColor=#1D3557;strokeColor=#457B9D;fillColor=#A8DADC;exitX=1;exitY=0.5;exitDx=0;exitDy=0;" parent="1" source="37" edge="1">
                    <mxGeometry width="50" height="50" relative="1" as="geometry">
                        <mxPoint x="1640" y="520" as="sourcePoint"/>
                        <mxPoint x="1360" y="820" as="targetPoint"/>
                        <Array as="points">
                            <mxPoint x="1640" y="515"/>
                            <mxPoint x="1640" y="920"/>
                            <mxPoint x="1360" y="920"/>
                        </Array>
                    </mxGeometry>
                </mxCell>
                <mxCell id="69" style="edgeStyle=elbowEdgeStyle;rounded=1;sketch=0;orthogonalLoop=1;jettySize=auto;html=1;entryX=0.5;entryY=1;entryDx=0;entryDy=0;shadow=1;fontSize=25;fontColor=#1D3557;strokeColor=#457B9D;fillColor=#A8DADC;" parent="1" source="50" target="50" edge="1">
                    <mxGeometry relative="1" as="geometry"/>
                </mxCell>
                <mxCell id="70" value="analogous to other diagram" style="text;html=1;align=center;verticalAlign=middle;resizable=0;points=[];autosize=1;strokeColor=none;fontSize=25;fontColor=#1D3557;" parent="1" vertex="1">
                    <mxGeometry x="1335" y="920" width="320" height="40" as="geometry"/>
                </mxCell>
                <mxCell id="77" value="" style="edgeStyle=elbowEdgeStyle;rounded=1;sketch=0;orthogonalLoop=1;jettySize=auto;html=1;shadow=1;fontSize=25;fontColor=#1D3557;strokeColor=#457B9D;fillColor=#A8DADC;" edge="1" parent="1" target="37">
                    <mxGeometry relative="1" as="geometry">
                        <mxPoint x="1360" y="430" as="sourcePoint"/>
                    </mxGeometry>
                </mxCell>
                <mxCell id="73" value="" style="endArrow=classic;html=1;shadow=1;fontSize=25;fontColor=#1D3557;strokeColor=#457B9D;fillColor=#A8DADC;" edge="1" parent="1" source="39">
                    <mxGeometry width="50" height="50" relative="1" as="geometry">
                        <mxPoint x="1310" y="375" as="sourcePoint"/>
                        <mxPoint x="1360" y="325" as="targetPoint"/>
                    </mxGeometry>
                </mxCell>
                <mxCell id="79" value="&lt;font style=&quot;font-size: 18px&quot;&gt;# cars&lt;br&gt;speed of cars&lt;/font&gt;" style="shape=parallelogram;perimeter=parallelogramPerimeter;whiteSpace=wrap;html=1;fixedSize=1;rounded=0;sketch=0;fontSize=25;strokeColor=#ae4132;fillColor=#fad9d5;" vertex="1" parent="1">
                    <mxGeometry x="1356" y="335" width="161" height="80" as="geometry"/>
                </mxCell>
                <mxCell id="80" value="&lt;font style=&quot;font-size: 18px&quot;&gt;if rush hour&lt;/font&gt;" style="rhombus;whiteSpace=wrap;html=1;rounded=0;sketch=0;fontSize=25;strokeColor=#ae4132;fillColor=#fad9d5;" vertex="1" parent="1">
                    <mxGeometry x="1240" y="317.5" width="116" height="115" as="geometry"/>
                </mxCell>
                <mxCell id="81" value="" style="endArrow=classic;html=1;shadow=1;fontSize=25;fontColor=#1D3557;strokeColor=#457B9D;fillColor=#A8DADC;" edge="1" parent="1" source="80" target="83">
                    <mxGeometry width="50" height="50" relative="1" as="geometry">
                        <mxPoint x="1234" y="380" as="sourcePoint"/>
                        <mxPoint x="1155" y="395" as="targetPoint"/>
                        <Array as="points">
                            <mxPoint x="1076" y="370"/>
                        </Array>
                    </mxGeometry>
                </mxCell>
                <mxCell id="85" style="edgeStyle=elbowEdgeStyle;rounded=1;sketch=0;orthogonalLoop=1;jettySize=auto;html=1;shadow=1;fontSize=25;fontColor=#1D3557;strokeColor=#457B9D;fillColor=#A8DADC;entryX=0;entryY=0.5;entryDx=0;entryDy=0;" edge="1" parent="1" source="83" target="37">
                    <mxGeometry relative="1" as="geometry">
                        <mxPoint x="1230" y="573" as="targetPoint"/>
                        <Array as="points">
                            <mxPoint x="1180" y="573"/>
                        </Array>
                    </mxGeometry>
                </mxCell>
                <mxCell id="83" value="&lt;font style=&quot;font-size: 17px&quot;&gt;delay change&lt;/font&gt;" style="shape=process;whiteSpace=wrap;html=1;backgroundOutline=1;rounded=0;sketch=0;fontSize=25;strokeColor=#ae4132;fillColor=#fad9d5;" vertex="1" parent="1">
                    <mxGeometry x="1010" y="550" width="130" height="45" as="geometry"/>
                </mxCell>
            </root>
        </mxGraphModel>
    </diagram>
</mxfile>